<?xml version="1.0" encoding="UTF-8"?>
<!DOCTYPE svg PUBLIC "-//W3C//DTD SVG 1.1//EN" "http://www.w3.org/Graphics/SVG/1.1/DTD/svg11.dtd">
<!-- Creator: CorelDRAW 2017 -->
<svg xmlns="http://www.w3.org/2000/svg" xml:space="preserve" width="210mm" height="297mm" version="1.1" style="shape-rendering:geometricPrecision; text-rendering:geometricPrecision; image-rendering:optimizeQuality; fill-rule:evenodd; clip-rule:evenodd"
viewBox="0 0 21000 29700"
 xmlns:xlink="http://www.w3.org/1999/xlink">
 <defs>
  <style type="text/css">
   <![CDATA[
    .fil0 {fill:#E31E24}
   ]]>
  </style>
 </defs>
 <g id="Layer_x0020_1">
  <metadata id="CorelCorpID_0Corel-Layer"/>
  <g id="_2035699490912">
   <path class="fil0" d="M2348 12132c-166,0 -301,135 -301,301 0,166 135,301 301,301 166,0 301,-135 301,-301 0,-166 -135,-301 -301,-301zm0 582c-155,0 -281,-126 -281,-281 0,-155 126,-281 281,-281 155,0 281,126 281,281 0,155 -126,281 -281,281z"/>
   <path class="fil0" d="M2338 12394l0 -102c0,-6 4,-10 10,-10 6,0 10,4 10,10l0 102c14,4 25,15 29,29l72 0c6,0 10,4 10,10 0,6 -4,10 -10,10l-72 0c-4,17 -20,30 -39,30 -22,0 -40,-18 -40,-40 0,-19 13,-34 30,-39zm10 59c11,0 20,-9 20,-20 0,-11 -9,-20 -20,-20 -11,0 -20,9 -20,20 0,11 9,20 20,20z"/>
   <path class="fil0" d="M2348 12231c6,0 10,-4 10,-10l0 -10c0,-6 -4,-10 -10,-10 -6,0 -10,4 -10,10l0 10c0,6 4,10 10,10z"/>
   <path class="fil0" d="M2348 12633c-6,0 -10,4 -10,10l0 10c0,6 4,10 10,10 6,0 10,-4 10,-10l0 -10c0,-6 -4,-10 -10,-10z"/>
   <path class="fil0" d="M2569 12422l-10 0c-6,0 -10,4 -10,10 0,6 5,10 10,10l10 0c6,0 10,-4 10,-10 0,-6 -4,-10 -10,-10z"/>
   <path class="fil0" d="M2137 12422l-10 0c-6,0 -10,4 -10,10 0,6 4,10 10,10l10 0c6,0 10,-4 10,-10 0,-6 -5,-10 -10,-10z"/>
   <path class="fil0" d="M2497 12269l-7 7c-4,4 -4,10 0,14 2,2 5,3 7,3 3,0 5,-1 7,-3l7 -7c4,-4 4,-10 0,-14 -4,-4 -10,-4 -14,0z"/>
   <path class="fil0" d="M2192 12574l-7 7c-4,4 -4,10 0,14 2,2 5,3 7,3 3,0 5,-1 7,-3l7 -7c4,-4 4,-10 0,-14 -4,-4 -10,-4 -14,0z"/>
   <path class="fil0" d="M2504 12574c-4,-4 -10,-4 -14,0 -4,4 -4,10 0,14l7 7c2,2 5,3 7,3 3,0 5,-1 7,-3 4,-4 4,-10 0,-14l-7 -7z"/>
   <path class="fil0" d="M2199 12269c-4,-4 -10,-4 -14,0 -4,4 -4,10 0,14l7 7c2,2 5,3 7,3 3,0 5,-1 7,-3 4,-4 4,-10 0,-14l-7 -7z"/>
   <path class="fil0" d="M2348 12076c-197,0 -357,160 -357,357 0,197 160,357 357,357 197,0 357,-160 357,-357 0,-197 -160,-357 -357,-357zm0 690c-184,0 -333,-149 -333,-333 0,-184 149,-333 333,-333 184,0 333,149 333,333 0,184 -149,333 -333,333z"/>
  </g>
 </g>
</svg>
