<?xml version="1.0" encoding="UTF-8"?>
<!DOCTYPE svg PUBLIC "-//W3C//DTD SVG 1.1//EN" "http://www.w3.org/Graphics/SVG/1.1/DTD/svg11.dtd">
<!-- Creator: CorelDRAW 2017 -->
<svg xmlns="http://www.w3.org/2000/svg" xml:space="preserve" width="210mm" height="297mm" version="1.1" style="shape-rendering:geometricPrecision; text-rendering:geometricPrecision; image-rendering:optimizeQuality; fill-rule:evenodd; clip-rule:evenodd"
viewBox="0 0 21000 29700"
 xmlns:xlink="http://www.w3.org/1999/xlink">
 <defs>
  <style type="text/css">
   <![CDATA[
    .str0 {stroke:#FEFEFE;stroke-width:50}
    .fil1 {fill:#FEFEFE}
    .fil0 {fill:#F7AC5E}
    .fil2 {fill:#EF7F1A}
   ]]>
  </style>
 </defs>
 <g id="Layer_x0020_1">
  <metadata id="CorelCorpID_0Corel-Layer"/>
  <rect class="fil0 str0" x="3194" y="9202" width="1140" height="1500"/>
  <g id="_2035699478560">
   <g>
    <path class="fil1" d="M3784 9786c-5,-11 -19,-16 -30,-11 -5,2 -9,6 -11,11l-45 93 -102 14c-12,2 -21,13 -20,25 1,5 3,10 7,14l0 0 75 71 -19 101c-2,12 6,24 18,26 5,1 10,0 15,-2l0 0 91 -49 91 49c11,6 25,2 31,-9 3,-5 3,-11 2,-16l-18 -100 75 -71c9,-9 9,-23 1,-32 -4,-4 -9,-6 -14,-7l-101 -14 -45 -93zm0 0z"/>
    <path class="fil1" d="M3511 9526l-36 -28 4 -46c0,-6 -4,-11 -9,-11 -2,0 -5,0 -7,2l-38 26 -43 -18c-5,-2 -11,0 -13,6 -1,2 -1,5 0,7l0 0 13 45 -30 35c-4,4 -3,11 1,14 2,2 4,2 6,2l0 0 46 1 24 40c3,5 9,6 14,3 2,-1 4,-3 4,-6l15 -43 45 -11c5,-1 9,-7 8,-12 -1,-3 -2,-5 -4,-6zm0 0z"/>
    <path class="fil1" d="M3537 10270l-30 -35c-1,-2 -4,-3 -6,-3 -6,-1 -11,3 -12,8l-9 46 -43 18c-2,1 -4,2 -5,5 -3,5 -1,11 4,14l41 22 4 46c0,2 1,5 3,7 4,4 10,4 14,0l34 -32 45 11 0 0c2,1 5,0 7,-1 5,-2 7,-9 5,-14l-20 -42 24 -40c1,-2 2,-4 1,-7 -1,-6 -6,-10 -11,-9l-46 6zm0 0z"/>
    <path class="fil1" d="M4018 10343l24 40 -20 42c-2,5 0,11 5,14 2,1 5,1 7,1l0 0 45 -11 34 32c4,4 11,4 14,0 2,-2 3,-4 3,-7l4 -46 41 -22c5,-3 7,-9 4,-14 -1,-2 -3,-4 -5,-5l-43 -18 -9 -46c-1,-6 -6,-9 -12,-8 -2,0 -4,2 -6,3l-30 35 -46 -6c-6,-1 -11,3 -11,9 0,2 0,5 1,7l0 0zm0 0z"/>
    <path class="fil1" d="M3977 9686l45 11 0 0c2,1 5,0 7,-1 5,-2 7,-9 5,-14l-20 -42 24 -40c1,-2 2,-4 1,-7 -1,-6 -6,-10 -11,-9l-46 6 -30 -35c-1,-2 -3,-3 -6,-3 -6,-1 -11,3 -12,8l-9 46 -43 18c-2,1 -4,2 -5,5 -3,5 -1,11 4,14l41 22 4 46c0,2 1,5 3,7 4,4 10,4 14,0l34 -32zm0 0z"/>
   </g>
   <path class="fil1" d="M3789 10301c-11,0 -21,9 -21,21l0 0c0,11 9,21 21,21 11,0 21,-9 21,-21l0 0c0,-11 -9,-21 -21,-21zm0 0z"/>
   <path class="fil1" d="M4066 10041c-11,0 -21,9 -21,21l0 0c0,11 9,21 21,21 11,0 21,-9 21,-21l0 0c0,-11 -9,-21 -21,-21zm0 0z"/>
   <path class="fil1" d="M3565 9741c11,0 21,-9 21,-21l0 0c0,-11 -9,-21 -21,-21 -11,0 -21,9 -21,21l0 0c0,11 9,21 21,21zm0 0z"/>
   <path class="fil1" d="M3721 9578c11,0 21,-9 21,-21l0 0c0,-11 -9,-21 -21,-21 -11,0 -21,9 -21,21l0 0c0,11 9,21 21,21zm0 0z"/>
   <path class="fil1" d="M3422 10006l0 0c0,-11 -9,-21 -21,-21 -11,0 -21,9 -21,21l0 0c0,11 9,21 21,21 11,0 21,-9 21,-21zm0 0z"/>
   <path class="fil1" d="M4179 9846c11,0 21,-9 21,-21l0 0c0,-11 -9,-21 -21,-21 -11,0 -21,9 -21,21l0 0c0,11 9,21 21,21zm0 0z"/>
   <path class="fil1" d="M4070 9462c11,0 21,-9 21,-21l0 0c0,-11 -9,-21 -21,-21 -11,0 -21,9 -21,21l0 0c0,11 9,21 21,21zm0 0z"/>
  </g>
  <rect class="fil2 str0" x="3194" y="9202" width="1140" height="1500"/>
  <g id="_2035699473216">
   <g>
    <path class="fil1" d="M3784 9786c-5,-11 -19,-16 -30,-11 -5,2 -9,6 -11,11l-45 93 -102 14c-12,2 -21,13 -20,25 1,5 3,10 7,14l0 0 75 71 -19 101c-2,12 6,24 18,26 5,1 10,0 15,-2l0 0 91 -49 91 49c11,6 25,2 31,-9 3,-5 3,-11 2,-16l-18 -100 75 -71c9,-9 9,-23 1,-32 -4,-4 -9,-6 -14,-7l-101 -14 -45 -93zm0 0z"/>
    <path class="fil1" d="M3511 9526l-36 -28 4 -46c0,-6 -4,-11 -9,-11 -2,0 -5,0 -7,2l-38 26 -43 -18c-5,-2 -11,0 -13,6 -1,2 -1,5 0,7l0 0 13 45 -30 35c-4,4 -3,11 1,14 2,2 4,2 6,2l0 0 46 1 24 40c3,5 9,6 14,3 2,-1 4,-3 4,-6l15 -43 45 -11c5,-1 9,-7 8,-12 -1,-3 -2,-5 -4,-6zm0 0z"/>
    <path class="fil1" d="M3537 10270l-30 -35c-1,-2 -4,-3 -6,-3 -6,-1 -11,3 -12,8l-9 46 -43 18c-2,1 -4,2 -5,5 -3,5 -1,11 4,14l41 22 4 46c0,2 1,5 3,7 4,4 10,4 14,0l34 -32 45 11 0 0c2,1 5,0 7,-1 5,-2 7,-9 5,-14l-20 -42 24 -40c1,-2 2,-4 1,-7 -1,-6 -6,-10 -11,-9l-46 6zm0 0z"/>
    <path class="fil1" d="M4018 10343l24 40 -20 42c-2,5 0,11 5,14 2,1 5,1 7,1l0 0 45 -11 34 32c4,4 11,4 14,0 2,-2 3,-4 3,-7l4 -46 41 -22c5,-3 7,-9 4,-14 -1,-2 -3,-4 -5,-5l-43 -18 -9 -46c-1,-6 -6,-9 -12,-8 -2,0 -4,2 -6,3l-30 35 -46 -6c-6,-1 -11,3 -11,9 0,2 0,5 1,7l0 0zm0 0z"/>
    <path class="fil1" d="M3977 9686l45 11 0 0c2,1 5,0 7,-1 5,-2 7,-9 5,-14l-20 -42 24 -40c1,-2 2,-4 1,-7 -1,-6 -6,-10 -11,-9l-46 6 -30 -35c-1,-2 -3,-3 -6,-3 -6,-1 -11,3 -12,8l-9 46 -43 18c-2,1 -4,2 -5,5 -3,5 -1,11 4,14l41 22 4 46c0,2 1,5 3,7 4,4 10,4 14,0l34 -32zm0 0z"/>
   </g>
   <path class="fil1" d="M3789 10301c-11,0 -21,9 -21,21l0 0c0,11 9,21 21,21 11,0 21,-9 21,-21l0 0c0,-11 -9,-21 -21,-21zm0 0z"/>
   <path class="fil1" d="M4066 10041c-11,0 -21,9 -21,21l0 0c0,11 9,21 21,21 11,0 21,-9 21,-21l0 0c0,-11 -9,-21 -21,-21zm0 0z"/>
   <path class="fil1" d="M3565 9741c11,0 21,-9 21,-21l0 0c0,-11 -9,-21 -21,-21 -11,0 -21,9 -21,21l0 0c0,11 9,21 21,21zm0 0z"/>
   <path class="fil1" d="M3721 9578c11,0 21,-9 21,-21l0 0c0,-11 -9,-21 -21,-21 -11,0 -21,9 -21,21l0 0c0,11 9,21 21,21zm0 0z"/>
   <path class="fil1" d="M3422 10006l0 0c0,-11 -9,-21 -21,-21 -11,0 -21,9 -21,21l0 0c0,11 9,21 21,21 11,0 21,-9 21,-21zm0 0z"/>
   <path class="fil1" d="M4179 9846c11,0 21,-9 21,-21l0 0c0,-11 -9,-21 -21,-21 -11,0 -21,9 -21,21l0 0c0,11 9,21 21,21zm0 0z"/>
   <path class="fil1" d="M4070 9462c11,0 21,-9 21,-21l0 0c0,-11 -9,-21 -21,-21 -11,0 -21,9 -21,21l0 0c0,11 9,21 21,21zm0 0z"/>
  </g>
 </g>
</svg>
