<?xml version="1.0" encoding="UTF-8"?>
<!DOCTYPE svg PUBLIC "-//W3C//DTD SVG 1.1//EN" "http://www.w3.org/Graphics/SVG/1.1/DTD/svg11.dtd">
<!-- Creator: CorelDRAW 2017 -->
<svg xmlns="http://www.w3.org/2000/svg" xml:space="preserve" width="210mm" height="297mm" version="1.1" style="shape-rendering:geometricPrecision; text-rendering:geometricPrecision; image-rendering:optimizeQuality; fill-rule:evenodd; clip-rule:evenodd"
viewBox="0 0 21000 29700"
 xmlns:xlink="http://www.w3.org/1999/xlink">
 <defs>
  <style type="text/css">
   <![CDATA[
    .str0 {stroke:#FEFEFE;stroke-width:50}
    .fil1 {fill:#FEFEFE}
    .fil0 {fill:#F7AC5E}
    .fil2 {fill:#EF7F1A}
   ]]>
  </style>
 </defs>
 <g id="Layer_x0020_1">
  <metadata id="CorelCorpID_0Corel-Layer"/>
  <rect class="fil0 str0" x="5474" y="9202" width="1140" height="1500"/>
  <path class="fil1" d="M6416 9994l-4 -13 -78 -19c-162,-40 7,2 -146,-36l-51 -13c-6,-23 -18,-44 -35,-60l78 -272 -9 -10c-38,-42 -93,-66 -153,-66 -59,0 -115,24 -153,66l-9 10c26,89 8,26 32,112 7,26 -15,-53 3,11l14 50c21,73 -5,-18 14,48l15 51c-17,16 -29,37 -35,60l-51 13c-67,17 18,-4 -48,12l-175 43 -4 13c-18,54 -11,114 19,165 30,51 78,88 133,99l13 3 56 -57c49,-50 -72,74 105,-108l37 -38c11,3 23,5 35,5 12,0 24,-2 35,-5l196 204 13 -3c55,-12 104,-48 134,-99 30,-51 37,-112 19,-165l0 0zm-319 40c21,-18 37,-43 42,-72l235 59c9,38 2,79 -19,114 -21,36 -53,62 -90,73l-168 -175zm-186 -441c28,-26 67,-41 108,-41 41,0 80,15 108,41l-67 233c-13,-5 -27,-7 -42,-7 -15,0 -29,3 -42,7l-67 -233zm-139 615c-37,-11 -69,-38 -90,-73 -21,-36 -27,-77 -18,-114l235 -58c5,29 20,54 41,72l-169 174zm173 -267c0,-41 33,-74 74,-74 41,0 74,33 74,74 0,41 -33,74 -74,74 -41,0 -74,-33 -74,-74z"/>
  <rect class="fil2 str0" x="5474" y="9202" width="1140" height="1500"/>
  <path class="fil1" d="M6416 9994l-4 -13 -78 -19c0,-7 1,-14 1,-21 0,-90 -39,-177 -106,-237l-32 36c58,51 90,124 90,201 0,3 0,6 0,9l-50 -13c-1,-49 -18,-97 -50,-135l-37 30c22,26 35,59 38,93l-51 -13c-6,-23 -18,-44 -35,-60l78 -272 -9 -10c-38,-42 -93,-66 -153,-66 -59,0 -115,24 -153,66l-9 10 22 77c-17,9 -34,19 -50,30 -53,40 -93,96 -113,159l45 14c22,-70 69,-125 130,-157l14 50c-19,11 -36,25 -51,42l36 32c9,-10 18,-18 29,-26l15 51c-17,16 -29,37 -35,60l-51 13c2,-20 7,-39 15,-57l-43 -20c-13,28 -20,58 -21,89l-175 43 -4 13c-18,54 -11,114 19,165 30,51 78,88 133,99l13 3 56 -57c52,35 113,54 176,54 22,0 44,-2 65,-7l-10 -47c-18,4 -36,6 -55,6 -52,0 -101,-15 -142,-41l36 -37c31,18 68,28 106,28l0 -48c-26,0 -50,-6 -72,-16l37 -38c11,3 23,5 35,5 12,0 24,-2 35,-5l196 204 13 -3c55,-12 104,-48 134,-99 30,-51 37,-112 19,-165l0 0zm-319 40c21,-18 37,-43 42,-72l235 59c9,38 2,79 -19,114 -21,36 -53,62 -90,73l-168 -175zm-186 -441c28,-26 67,-41 108,-41 41,0 80,15 108,41l-67 233c-13,-5 -27,-7 -42,-7 -15,0 -29,3 -42,7l-67 -233zm-139 615c-37,-11 -69,-38 -90,-73 -21,-36 -27,-77 -18,-114l235 -58c5,29 20,54 41,72l-169 174zm173 -267c0,-41 33,-74 74,-74 41,0 74,33 74,74 0,41 -33,74 -74,74 -41,0 -74,-33 -74,-74zm0 0z"/>
 </g>
</svg>
