<?xml version="1.0" encoding="UTF-8"?>
<!DOCTYPE svg PUBLIC "-//W3C//DTD SVG 1.1//EN" "http://www.w3.org/Graphics/SVG/1.1/DTD/svg11.dtd">
<!-- Creator: CorelDRAW 2017 -->
<svg xmlns="http://www.w3.org/2000/svg" xml:space="preserve" width="210mm" height="297mm" version="1.1" style="shape-rendering:geometricPrecision; text-rendering:geometricPrecision; image-rendering:optimizeQuality; fill-rule:evenodd; clip-rule:evenodd"
viewBox="0 0 21000 29700"
 xmlns:xlink="http://www.w3.org/1999/xlink">
 <defs>
  <style type="text/css">
   <![CDATA[
    .str0 {stroke:#FEFEFE;stroke-width:50}
    .str1 {stroke:#FEFEFE;stroke-width:20}
    .fil2 {fill:none}
    .fil1 {fill:#FEFCF9}
    .fil0 {fill:#F7AC5E}
    .fil3 {fill:#EF7F1A}
   ]]>
  </style>
 </defs>
 <g id="Layer_x0020_1">
  <metadata id="CorelCorpID_0Corel-Layer"/>
  <rect class="fil0 str0" x="4334" y="9202" width="1140" height="1500"/>
  <g id="_2035691181904">
   <path class="fil0" d="M5201 9660l-619 0c0,24 0,20 0,44l0 515c0,24 0,21 0,44l663 0c0,-15 0,-20 0,-44l0 -515c0,-24 0,-26 0,-44l-44 0zm0 0z"/>
   <path class="fil1" d="M5245 9821l0 -20 -171 0 0 -141 -20 0 0 141 -281 0 0 -141 -20 0 0 141 -171 0 0 20 81 0 0 131 -81 0 0 20 171 0 0 131 -171 0 0 20 81 0 0 141 20 0 0 -141 221 0 0 141 20 0 0 -141 221 0 0 141 20 0 0 -141 81 0 0 -20 -171 0 0 -131 171 0 0 -20 -81 0 0 -131 81 0zm-563 0l221 0 0 131 -221 0 0 -131zm372 282l-281 0 0 -131 281 0 0 131zm91 -151l-221 0 0 -131 221 0 0 131zm0 0z"/>
   <rect class="fil2 str1" x="4582" y="9660" width="663" height="603"/>
  </g>
  <rect class="fil3 str0" x="4334" y="9202" width="1140" height="1500"/>
  <g id="_2035691181424">
   <path class="fil0" d="M5201 9660l-619 0c0,24 0,20 0,44l0 515c0,24 0,21 0,44l663 0c0,-15 0,-20 0,-44l0 -515c0,-24 0,-26 0,-44l-44 0zm0 0z"/>
   <path class="fil1" d="M5245 9821l0 -20 -171 0 0 -141 -20 0 0 141 -281 0 0 -141 -20 0 0 141 -171 0 0 20 81 0 0 131 -81 0 0 20 171 0 0 131 -171 0 0 20 81 0 0 141 20 0 0 -141 221 0 0 141 20 0 0 -141 221 0 0 141 20 0 0 -141 81 0 0 -20 -171 0 0 -131 171 0 0 -20 -81 0 0 -131 81 0zm-563 0l221 0 0 131 -221 0 0 -131zm372 282l-281 0 0 -131 281 0 0 131zm91 -151l-221 0 0 -131 221 0 0 131zm0 0z"/>
   <rect class="fil2 str1" x="4582" y="9660" width="663" height="603"/>
  </g>
 </g>
</svg>
