<?xml version="1.0" encoding="UTF-8"?>
<!DOCTYPE svg PUBLIC "-//W3C//DTD SVG 1.1//EN" "http://www.w3.org/Graphics/SVG/1.1/DTD/svg11.dtd">
<!-- Creator: CorelDRAW 2017 -->
<svg xmlns="http://www.w3.org/2000/svg" xml:space="preserve" width="210mm" height="297mm" version="1.1" style="shape-rendering:geometricPrecision; text-rendering:geometricPrecision; image-rendering:optimizeQuality; fill-rule:evenodd; clip-rule:evenodd"
viewBox="0 0 21000 29700"
 xmlns:xlink="http://www.w3.org/1999/xlink">
 <defs>
  <style type="text/css">
   <![CDATA[
    .str0 {stroke:#FEFEFE;stroke-width:50}
    .fil0 {fill:#F7AC5E}
    .fil8 {fill:#EF7F1A}
    .fil1 {fill:#006DF0}
    .fil3 {fill:#91DC5A}
    .fil6 {fill:#99EFF2}
    .fil2 {fill:#D80027}
    .fil5 {fill:#EA348B}
    .fil7 {fill:#FFDA44}
    .fil4 {fill:white}
   ]]>
  </style>
 </defs>
 <g id="Layer_x0020_1">
  <metadata id="CorelCorpID_0Corel-Layer"/>
  <rect class="fil0 str0" x="2054" y="9202" width="1140" height="1500"/>
  <g id="_1999337921488">
   <circle class="fil1" cx="2772" cy="10053" r="235"/>
   <circle class="fil2" cx="2623" cy="9797" r="235"/>
   <circle class="fil3" cx="2475" cy="10053" r="235"/>
   <path class="fil4" d="M2838 9840c0,0 -150,-21 -214,32 -64,-52 -213,-32 -213,-32 0,0 52,148 129,177 -13,81 83,186 83,186 1,0 96,-105 83,-186 77,-30 131,-177 131,-177z"/>
   <path class="fil5" d="M2624 9872c21,17 40,39 55,64 15,26 24,53 29,81 77,-30 135,-99 148,-183 -79,-30 -167,-14 -231,38z"/>
   <path class="fil6" d="M2707 10017c-26,10 -54,16 -84,16 -29,0 -57,-5 -83,-15 -13,81 18,165 83,218 65,-53 96,-137 83,-219z"/>
   <path class="fil7" d="M2540 10017c4,-28 14,-55 29,-81 15,-25 33,-47 55,-64 -64,-52 -153,-68 -233,-37 13,84 71,154 149,183z"/>
   <path class="fil4" d="M2624 9872c-21,17 -40,39 -55,64 -15,26 -24,53 -29,81 26,10 54,15 83,15 30,0 58,-6 84,-16 -4,-28 -14,-55 -29,-81 -15,-25 -33,-47 -55,-64z"/>
   <g>
   </g>
   <g>
   </g>
   <g>
   </g>
   <g>
   </g>
   <g>
   </g>
   <g>
   </g>
   <g>
   </g>
   <g>
   </g>
   <g>
   </g>
   <g>
   </g>
   <g>
   </g>
   <g>
   </g>
   <g>
   </g>
   <g>
   </g>
   <g>
   </g>
  </g>
  <rect class="fil8 str0" x="2054" y="9202" width="1140" height="1500"/>
  <g id="_1999337981904">
   <circle class="fil1" cx="2772" cy="10053" r="235"/>
   <circle class="fil2" cx="2623" cy="9797" r="235"/>
   <circle class="fil3" cx="2475" cy="10053" r="235"/>
   <path class="fil4" d="M2838 9840c0,0 -150,-21 -214,32 -64,-52 -213,-32 -213,-32 0,0 52,148 129,177 -13,81 83,186 83,186 1,0 96,-105 83,-186 77,-30 131,-177 131,-177z"/>
   <path class="fil5" d="M2624 9872c21,17 40,39 55,64 15,26 24,53 29,81 77,-30 135,-99 148,-183 -79,-30 -167,-14 -231,38z"/>
   <path class="fil6" d="M2707 10017c-26,10 -54,16 -84,16 -29,0 -57,-5 -83,-15 -13,81 18,165 83,218 65,-53 96,-137 83,-219z"/>
   <path class="fil7" d="M2540 10017c4,-28 14,-55 29,-81 15,-25 33,-47 55,-64 -64,-52 -153,-68 -233,-37 13,84 71,154 149,183z"/>
   <path class="fil4" d="M2624 9872c-21,17 -40,39 -55,64 -15,26 -24,53 -29,81 26,10 54,15 83,15 30,0 58,-6 84,-16 -4,-28 -14,-55 -29,-81 -15,-25 -33,-47 -55,-64z"/>
   <g>
   </g>
   <g>
   </g>
   <g>
   </g>
   <g>
   </g>
   <g>
   </g>
   <g>
   </g>
   <g>
   </g>
   <g>
   </g>
   <g>
   </g>
   <g>
   </g>
   <g>
   </g>
   <g>
   </g>
   <g>
   </g>
   <g>
   </g>
   <g>
   </g>
  </g>
 </g>
</svg>
