<?xml version="1.0" encoding="UTF-8"?>
<!DOCTYPE svg PUBLIC "-//W3C//DTD SVG 1.1//EN" "http://www.w3.org/Graphics/SVG/1.1/DTD/svg11.dtd">
<!-- Creator: CorelDRAW 2017 -->
<svg xmlns="http://www.w3.org/2000/svg" xml:space="preserve" width="210mm" height="297mm" version="1.1" style="shape-rendering:geometricPrecision; text-rendering:geometricPrecision; image-rendering:optimizeQuality; fill-rule:evenodd; clip-rule:evenodd"
viewBox="0 0 21000 29700"
 xmlns:xlink="http://www.w3.org/1999/xlink">
 <defs>
  <style type="text/css">
   <![CDATA[
    .fil0 {fill:#E31E24}
   ]]>
  </style>
 </defs>
 <g id="Layer_x0020_1">
  <metadata id="CorelCorpID_0Corel-Layer"/>
  <g id="_2035701695488">
   <path class="fil0" d="M2664 13002c-39,-39 -103,-39 -142,0l-341 341c-55,-6 -109,18 -141,62 -52,70 -38,169 31,221 63,47 151,41 207,-15 33,-33 50,-80 45,-127l341 -341c39,-39 39,-103 0,-142zm-406 589c-50,51 -132,51 -183,0 -51,-50 -51,-132 0,-183 29,-29 69,-42 110,-37 4,1 9,-1 12,-4l31 -31 20 20 20 -20 -20 -20 30 -30 20 20 20 -20 -20 -20 30 -30 20 20 20 -20 -20 -20 30 -30 20 20 20 -20 -20 -20 30 -30 20 20 20 -20 -20 -20 30 -30 20 20 20 -20 -20 -20 41 -41c28,-28 74,-28 102,0 28,28 28,74 0,102l-345 345c-3,3 -5,8 -4,12 6,40 -8,81 -36,110l0 0zm0 0z"/>
   <path class="fil0" d="M2226 13460l356 -356 -20 -20 -356 356c-33,-22 -78,-13 -100,20 -22,33 -13,78 20,100 33,22 78,13 100,-20 16,-24 16,-55 0,-79zm-90 70c-17,-17 -17,-44 0,-61 17,-17 44,-17 61,0 17,17 17,44 0,61 -17,17 -44,17 -61,0zm0 0z"/>
  </g>
 </g>
</svg>
